<?xml version="1.0" encoding="UTF-8" standalone="no"?>
<!DOCTYPE svg PUBLIC "-//W3C//DTD SVG 1.1//EN"
 "http://www.w3.org/Graphics/SVG/1.1/DTD/svg11.dtd">
<!-- Generated by graphviz version 14.1.5 (20260411.2331)
 -->
<!-- Title: CostForecast AI — Arquitectura AWS Pages: 1 -->
<svg width="1574pt" height="1829pt"
 viewBox="0.00 0.00 1574.00 1829.00" xmlns="http://www.w3.org/2000/svg" xmlns:xlink="http://www.w3.org/1999/xlink">
<g id="graph0" class="graph" transform="scale(1 1) rotate(0) translate(36 1793.15)">
<title>CostForecast AI — Arquitectura AWS</title>
<polygon fill="white" stroke="none" points="-36,36 -36,-1793.15 1538,-1793.15 1538,36 -36,36"/>
<text xml:space="preserve" text-anchor="middle" x="751" y="-8.15" font-family="Sans-Serif" font-size="13.00" fill="#2d3436">CostForecast AI — Arquitectura AWS</text>
<g id="clust1" class="cluster">
<title>cluster_Edge / Acceso público</title>
<path fill="#e5f5fd" stroke="#aeb6be" d="M964,-1126.15C964,-1126.15 1200,-1126.15 1200,-1126.15 1206,-1126.15 1212,-1132.15 1212,-1138.15 1212,-1138.15 1212,-1554.85 1212,-1554.85 1212,-1560.85 1206,-1566.85 1200,-1566.85 1200,-1566.85 964,-1566.85 964,-1566.85 958,-1566.85 952,-1560.85 952,-1554.85 952,-1554.85 952,-1138.15 952,-1138.15 952,-1132.15 958,-1126.15 964,-1126.15"/>
<text xml:space="preserve" text-anchor="middle" x="1018.12" y="-1551.45" font-family="Sans-Serif" font-size="12.00" fill="#2d3436">Edge / Acceso público</text>
</g>
<g id="clust2" class="cluster">
<title>cluster_VPC &#160;us&#45;east&#45;1</title>
<path fill="#e5f5fd" stroke="#aeb6be" d="M610,-32.5C610,-32.5 1214,-32.5 1214,-32.5 1220,-32.5 1226,-38.5 1226,-44.5 1226,-44.5 1226,-1039.85 1226,-1039.85 1226,-1045.85 1220,-1051.85 1214,-1051.85 1214,-1051.85 610,-1051.85 610,-1051.85 604,-1051.85 598,-1045.85 598,-1039.85 598,-1039.85 598,-44.5 598,-44.5 598,-38.5 604,-32.5 610,-32.5"/>
<text xml:space="preserve" text-anchor="middle" x="645" y="-1036.45" font-family="Sans-Serif" font-size="12.00" fill="#2d3436">VPC &#160;us&#45;east&#45;1</text>
</g>
<g id="clust3" class="cluster">
<title>cluster_Capa de Aplicación &#160;(ECS Fargate)</title>
<path fill="#ebf3e7" stroke="#aeb6be" d="M890,-560.25C890,-560.25 1062,-560.25 1062,-560.25 1068,-560.25 1074,-566.25 1074,-572.25 1074,-572.25 1074,-1008.1 1074,-1008.1 1074,-1014.1 1068,-1020.1 1062,-1020.1 1062,-1020.1 890,-1020.1 890,-1020.1 884,-1020.1 878,-1014.1 878,-1008.1 878,-1008.1 878,-572.25 878,-572.25 878,-566.25 884,-560.25 890,-560.25"/>
<text xml:space="preserve" text-anchor="middle" x="976" y="-1004.7" font-family="Sans-Serif" font-size="12.00" fill="#2d3436">Capa de Aplicación &#160;(ECS Fargate)</text>
</g>
<g id="clust4" class="cluster">
<title>cluster_Agente IA &#160;(Lambda)</title>
<path fill="#ebf3e7" stroke="#aeb6be" d="M618,-305.75C618,-305.75 720,-305.75 720,-305.75 726,-305.75 732,-311.75 732,-317.75 732,-317.75 732,-499.1 732,-499.1 732,-505.1 726,-511.1 720,-511.1 720,-511.1 618,-511.1 618,-511.1 612,-511.1 606,-505.1 606,-499.1 606,-499.1 606,-317.75 606,-317.75 606,-311.75 612,-305.75 618,-305.75"/>
<text xml:space="preserve" text-anchor="middle" x="669.12" y="-495.7" font-family="Sans-Serif" font-size="12.00" fill="#2d3436">Agente IA &#160;(Lambda)</text>
</g>
<g id="clust5" class="cluster">
<title>cluster_Inferencia ML &#160;(SageMaker Endpoints)</title>
<path fill="#ebf3e7" stroke="#aeb6be" d="M618,-40.5C618,-40.5 1142,-40.5 1142,-40.5 1148,-40.5 1154,-46.5 1154,-52.5 1154,-52.5 1154,-233.85 1154,-233.85 1154,-239.85 1148,-245.85 1142,-245.85 1142,-245.85 618,-245.85 618,-245.85 612,-245.85 606,-239.85 606,-233.85 606,-233.85 606,-52.5 606,-52.5 606,-46.5 612,-40.5 618,-40.5"/>
<text xml:space="preserve" text-anchor="middle" x="714.5" y="-230.45" font-family="Sans-Serif" font-size="12.00" fill="#2d3436">Inferencia ML &#160;(SageMaker Endpoints)</text>
</g>
<g id="clust6" class="cluster">
<title>cluster_Capa de Datos</title>
<path fill="#e5f5fd" stroke="#aeb6be" d="M20,-291.35C20,-291.35 256,-291.35 256,-291.35 262,-291.35 268,-297.35 268,-303.35 268,-303.35 268,-1319.5 268,-1319.5 268,-1325.5 262,-1331.5 256,-1331.5 256,-1331.5 20,-1331.5 20,-1331.5 14,-1331.5 8,-1325.5 8,-1319.5 8,-1319.5 8,-303.35 8,-303.35 8,-297.35 14,-291.35 20,-291.35"/>
<text xml:space="preserve" text-anchor="middle" x="54.25" y="-1316.1" font-family="Sans-Serif" font-size="12.00" fill="#2d3436">Capa de Datos</text>
</g>
<g id="clust7" class="cluster">
<title>cluster_Infraestructura transversal</title>
<path fill="#e5f5fd" stroke="#aeb6be" d="M398,-1111.75C398,-1111.75 922,-1111.75 922,-1111.75 928,-1111.75 934,-1117.75 934,-1123.75 934,-1123.75 934,-1305.1 934,-1305.1 934,-1311.1 928,-1317.1 922,-1317.1 922,-1317.1 398,-1317.1 398,-1317.1 392,-1317.1 386,-1311.1 386,-1305.1 386,-1305.1 386,-1123.75 386,-1123.75 386,-1117.75 392,-1111.75 398,-1111.75"/>
<text xml:space="preserve" text-anchor="middle" x="463.38" y="-1301.7" font-family="Sans-Serif" font-size="12.00" fill="#2d3436">Infraestructura transversal</text>
</g>
<g id="clust8" class="cluster">
<title>cluster_APIs Externas</title>
<path fill="#e5f5fd" stroke="#aeb6be" d="M1246,-40.5C1246,-40.5 1482,-40.5 1482,-40.5 1488,-40.5 1494,-46.5 1494,-52.5 1494,-52.5 1494,-233.85 1494,-233.85 1494,-239.85 1488,-245.85 1482,-245.85 1482,-245.85 1246,-245.85 1246,-245.85 1240,-245.85 1234,-239.85 1234,-233.85 1234,-233.85 1234,-52.5 1234,-52.5 1234,-46.5 1240,-40.5 1246,-40.5"/>
<text xml:space="preserve" text-anchor="middle" x="1278.38" y="-230.45" font-family="Sans-Serif" font-size="12.00" fill="#2d3436">APIs Externas</text>
</g>
<!-- dc37ca93bf024e5ca95ad656791834a1 -->
<g id="node1" class="node">
<title>dc37ca93bf024e5ca95ad656791834a1</title>
<image xlink:href="C:\Users\analistapowerbi\Documents\GitHub\cost-forecast\costforecast-ai\.venv\Lib\site-packages\resources/onprem/client\users.png" width="100.8px" height="100.8px" preserveAspectRatio="xMinYMin meet" x="1031.6" y="-1739.15"/>
<text xml:space="preserve" text-anchor="middle" x="1082" y="-1623.4" font-family="Helvetica,sans-Serif" font-size="11.00" fill="#2d3436">Usuarios</text>
</g>
<!-- a5d9ce1800a54969846b1c56b84a5a73 -->
<g id="node2" class="node">
<title>a5d9ce1800a54969846b1c56b84a5a73</title>
<image xlink:href="C:\Users\analistapowerbi\Documents\GitHub\cost-forecast\costforecast-ai\.venv\Lib\site-packages\resources/aws/network\cloudfront.png" width="100.8px" height="100.8px" preserveAspectRatio="xMinYMin meet" x="959.6" y="-1502.7"/>
<text xml:space="preserve" text-anchor="middle" x="1010" y="-1386.05" font-family="Helvetica,sans-Serif" font-size="11.00" fill="#2d3436">CloudFront</text>
<text xml:space="preserve" text-anchor="middle" x="1010" y="-1372.55" font-family="Helvetica,sans-Serif" font-size="11.00" fill="#2d3436">+ WAF</text>
</g>
<!-- dc37ca93bf024e5ca95ad656791834a1&#45;&gt;a5d9ce1800a54969846b1c56b84a5a73 -->
<g id="edge1" class="edge">
<title>dc37ca93bf024e5ca95ad656791834a1&#45;&gt;a5d9ce1800a54969846b1c56b84a5a73</title>
<path fill="none" stroke="#6b7280" d="M1046,-1620.36C1046,-1620.36 1046,-1546.29 1046,-1546.29"/>
<polygon fill="#6b7280" stroke="#6b7280" points="1049.5,-1546.29 1046,-1536.29 1042.5,-1546.29 1049.5,-1546.29"/>
<text xml:space="preserve" text-anchor="middle" x="1057.88" y="-1579" font-family="Sans-Serif" font-size="13.00" fill="#2d3436">HTTPS /app</text>
</g>
<!-- 3cda50e319b3490c95e209cd783b1015 -->
<g id="node3" class="node">
<title>3cda50e319b3490c95e209cd783b1015</title>
<image xlink:href="C:\Users\analistapowerbi\Documents\GitHub\cost-forecast\costforecast-ai\.venv\Lib\site-packages\resources/aws/network\api-gateway.png" width="100.8px" height="100.8px" preserveAspectRatio="xMinYMin meet" x="1103.6" y="-1502.7"/>
<text xml:space="preserve" text-anchor="middle" x="1154" y="-1386.05" font-family="Helvetica,sans-Serif" font-size="11.00" fill="#2d3436">API Gateway</text>
<text xml:space="preserve" text-anchor="middle" x="1154" y="-1372.55" font-family="Helvetica,sans-Serif" font-size="11.00" fill="#2d3436">(REST)</text>
</g>
<!-- dc37ca93bf024e5ca95ad656791834a1&#45;&gt;3cda50e319b3490c95e209cd783b1015 -->
<g id="edge2" class="edge">
<title>dc37ca93bf024e5ca95ad656791834a1&#45;&gt;3cda50e319b3490c95e209cd783b1015</title>
<path fill="none" stroke="#6b7280" d="M1118,-1620.36C1118,-1620.36 1118,-1546.29 1118,-1546.29"/>
<polygon fill="#6b7280" stroke="#6b7280" points="1121.5,-1546.29 1118,-1536.29 1114.5,-1546.29 1121.5,-1546.29"/>
<text xml:space="preserve" text-anchor="middle" x="1179.62" y="-1579" font-family="Sans-Serif" font-size="13.00" fill="#2d3436">HTTPS /api</text>
</g>
<!-- fde4c0dac5794a78b8a59044f7a9fbc9 -->
<g id="node4" class="node">
<title>fde4c0dac5794a78b8a59044f7a9fbc9</title>
<image xlink:href="C:\Users\analistapowerbi\Documents\GitHub\cost-forecast\costforecast-ai\.venv\Lib\site-packages\resources/aws/network\elb-application-load-balancer.png" width="100.8px" height="100.8px" preserveAspectRatio="xMinYMin meet" x="969.6" y="-1252.95"/>
<text xml:space="preserve" text-anchor="middle" x="1020" y="-1137.2" font-family="Helvetica,sans-Serif" font-size="11.00" fill="#2d3436">Load Balancer</text>
</g>
<!-- a5d9ce1800a54969846b1c56b84a5a73&#45;&gt;fde4c0dac5794a78b8a59044f7a9fbc9 -->
<g id="edge3" class="edge">
<title>a5d9ce1800a54969846b1c56b84a5a73&#45;&gt;fde4c0dac5794a78b8a59044f7a9fbc9</title>
<path fill="none" stroke="#6b7280" d="M1015,-1369.83C1015,-1369.83 1015,-1282.28 1015,-1282.28"/>
<polygon fill="#6b7280" stroke="#6b7280" points="1018.5,-1282.28 1015,-1272.28 1011.5,-1282.28 1018.5,-1282.28"/>
</g>
<!-- 4eab9f32e65941128bd8ab0a478ffff1 -->
<g id="node6" class="node">
<title>4eab9f32e65941128bd8ab0a478ffff1</title>
<image xlink:href="C:\Users\analistapowerbi\Documents\GitHub\cost-forecast\costforecast-ai\.venv\Lib\site-packages\resources/aws/compute\elastic-container-service.png" width="100.8px" height="100.8px" preserveAspectRatio="xMinYMin meet" x="885.6" y="-701.45"/>
<text xml:space="preserve" text-anchor="middle" x="936" y="-584.8" font-family="Helvetica,sans-Serif" font-size="11.00" fill="#2d3436">FastAPI</text>
<text xml:space="preserve" text-anchor="middle" x="936" y="-571.3" font-family="Helvetica,sans-Serif" font-size="11.00" fill="#2d3436">Port 8000</text>
</g>
<!-- 3cda50e319b3490c95e209cd783b1015&#45;&gt;4eab9f32e65941128bd8ab0a478ffff1 -->
<g id="edge5" class="edge">
<title>3cda50e319b3490c95e209cd783b1015&#45;&gt;4eab9f32e65941128bd8ab0a478ffff1</title>
<path fill="none" stroke="#6b7280" d="M1125,-1369.86C1125,-1170.47 1125,-678.5 1125,-678.5 1125,-678.5 997.67,-678.5 997.67,-678.5"/>
<polygon fill="#6b7280" stroke="#6b7280" points="997.67,-675 987.67,-678.5 997.67,-682 997.67,-675"/>
</g>
<!-- 8da99c088f074d2ab7cd385f276a8521 -->
<g id="node5" class="node">
<title>8da99c088f074d2ab7cd385f276a8521</title>
<image xlink:href="C:\Users\analistapowerbi\Documents\GitHub\cost-forecast\costforecast-ai\.venv\Lib\site-packages\resources/aws/compute\elastic-container-service.png" width="100.8px" height="100.8px" preserveAspectRatio="xMinYMin meet" x="965.6" y="-955.95"/>
<text xml:space="preserve" text-anchor="middle" x="1016" y="-839.3" font-family="Helvetica,sans-Serif" font-size="11.00" fill="#2d3436">Streamlit</text>
<text xml:space="preserve" text-anchor="middle" x="1016" y="-825.8" font-family="Helvetica,sans-Serif" font-size="11.00" fill="#2d3436">Port 8501</text>
</g>
<!-- fde4c0dac5794a78b8a59044f7a9fbc9&#45;&gt;8da99c088f074d2ab7cd385f276a8521 -->
<g id="edge4" class="edge">
<title>fde4c0dac5794a78b8a59044f7a9fbc9&#45;&gt;8da99c088f074d2ab7cd385f276a8521</title>
<path fill="none" stroke="#6b7280" d="M1034.13,-1134.41C1034.13,-1134.41 1034.13,-999.7 1034.13,-999.7"/>
<polygon fill="#6b7280" stroke="#6b7280" points="1037.63,-999.7 1034.13,-989.7 1030.63,-999.7 1037.63,-999.7"/>
</g>
<!-- 8da99c088f074d2ab7cd385f276a8521&#45;&gt;4eab9f32e65941128bd8ab0a478ffff1 -->
<g id="edge6" class="edge">
<title>8da99c088f074d2ab7cd385f276a8521&#45;&gt;4eab9f32e65941128bd8ab0a478ffff1</title>
<path fill="none" stroke="#6b7280" d="M976,-822.92C976,-822.92 976,-745.21 976,-745.21"/>
<polygon fill="#6b7280" stroke="#6b7280" points="979.5,-745.21 976,-735.21 972.5,-745.21 979.5,-745.21"/>
<text xml:space="preserve" text-anchor="middle" x="991.38" y="-767" font-family="Sans-Serif" font-size="13.00" fill="#2d3436">REST</text>
</g>
<!-- 183dfa53912e469c829531987bfb8b47 -->
<g id="node7" class="node">
<title>183dfa53912e469c829531987bfb8b47</title>
<image xlink:href="C:\Users\analistapowerbi\Documents\GitHub\cost-forecast\costforecast-ai\.venv\Lib\site-packages\resources/aws/compute\lambda.png" width="100.8px" height="100.8px" preserveAspectRatio="xMinYMin meet" x="613.6" y="-446.95"/>
<text xml:space="preserve" text-anchor="middle" x="664" y="-330.3" font-family="Helvetica,sans-Serif" font-size="11.00" fill="#2d3436">LangGraph</text>
<text xml:space="preserve" text-anchor="middle" x="664" y="-316.8" font-family="Helvetica,sans-Serif" font-size="11.00" fill="#2d3436">ReAct Agent</text>
</g>
<!-- 4eab9f32e65941128bd8ab0a478ffff1&#45;&gt;183dfa53912e469c829531987bfb8b47 -->
<g id="edge7" class="edge">
<title>4eab9f32e65941128bd8ab0a478ffff1&#45;&gt;183dfa53912e469c829531987bfb8b47</title>
<path fill="none" stroke="#6b7280" d="M889.6,-568.4C889.6,-515.03 889.6,-455.5 889.6,-455.5 889.6,-455.5 725.86,-455.5 725.86,-455.5"/>
<polygon fill="#6b7280" stroke="#6b7280" points="725.86,-452 715.86,-455.5 725.86,-459 725.86,-452"/>
<text xml:space="preserve" text-anchor="middle" x="771.5" y="-526.9" font-family="Sans-Serif" font-size="13.00" fill="#2d3436">forecast</text>
</g>
<!-- 41a49f42ab924e55971432195a5b336f -->
<g id="node8" class="node">
<title>41a49f42ab924e55971432195a5b336f</title>
<image xlink:href="C:\Users\analistapowerbi\Documents\GitHub\cost-forecast\costforecast-ai\.venv\Lib\site-packages\resources/aws/ml\sagemaker-model.png" width="100.8px" height="100.8px" preserveAspectRatio="xMinYMin meet" x="901.6" y="-181.7"/>
<text xml:space="preserve" text-anchor="middle" x="952" y="-65.05" font-family="Helvetica,sans-Serif" font-size="11.00" fill="#2d3436">SARIMAX</text>
<text xml:space="preserve" text-anchor="middle" x="952" y="-51.55" font-family="Helvetica,sans-Serif" font-size="11.00" fill="#2d3436">Equipo 1</text>
</g>
<!-- 4eab9f32e65941128bd8ab0a478ffff1&#45;&gt;41a49f42ab924e55971432195a5b336f -->
<g id="edge8" class="edge">
<title>4eab9f32e65941128bd8ab0a478ffff1&#45;&gt;41a49f42ab924e55971432195a5b336f</title>
<path fill="none" stroke="#6b7280" d="M965.2,-568.41C965.2,-568.41 965.2,-225.55 965.2,-225.55"/>
<polygon fill="#6b7280" stroke="#6b7280" points="968.7,-225.55 965.2,-215.55 961.7,-225.55 968.7,-225.55"/>
<text xml:space="preserve" text-anchor="middle" x="1071.88" y="-392.45" font-family="Sans-Serif" font-size="13.00" fill="#2d3436">predict</text>
</g>
<!-- 5a372ea6a55348e3ab82f0f8c8a1613d -->
<g id="node9" class="node">
<title>5a372ea6a55348e3ab82f0f8c8a1613d</title>
<image xlink:href="C:\Users\analistapowerbi\Documents\GitHub\cost-forecast\costforecast-ai\.venv\Lib\site-packages\resources/aws/ml\sagemaker-model.png" width="100.8px" height="100.8px" preserveAspectRatio="xMinYMin meet" x="1045.6" y="-181.7"/>
<text xml:space="preserve" text-anchor="middle" x="1096" y="-65.05" font-family="Helvetica,sans-Serif" font-size="11.00" fill="#2d3436">SARIMAX</text>
<text xml:space="preserve" text-anchor="middle" x="1096" y="-51.55" font-family="Helvetica,sans-Serif" font-size="11.00" fill="#2d3436">Equipo 2</text>
</g>
<!-- 4eab9f32e65941128bd8ab0a478ffff1&#45;&gt;5a372ea6a55348e3ab82f0f8c8a1613d -->
<g id="edge9" class="edge">
<title>4eab9f32e65941128bd8ab0a478ffff1&#45;&gt;5a372ea6a55348e3ab82f0f8c8a1613d</title>
<path fill="none" stroke="#6b7280" d="M986.2,-623.5C1021.03,-623.5 1061.2,-623.5 1061.2,-623.5 1061.2,-623.5 1061.2,-225.47 1061.2,-225.47"/>
<polygon fill="#6b7280" stroke="#6b7280" points="1064.7,-225.47 1061.2,-215.47 1057.7,-225.47 1064.7,-225.47"/>
<text xml:space="preserve" text-anchor="middle" x="1197.88" y="-392.45" font-family="Sans-Serif" font-size="13.00" fill="#2d3436">predict</text>
</g>
<!-- 81a35628a2094c09a134aeffa5e19a1a -->
<g id="node10" class="node">
<title>81a35628a2094c09a134aeffa5e19a1a</title>
<image xlink:href="C:\Users\analistapowerbi\Documents\GitHub\cost-forecast\costforecast-ai\.venv\Lib\site-packages\resources/aws/ml\sagemaker-model.png" width="100.8px" height="100.8px" preserveAspectRatio="xMinYMin meet" x="613.6" y="-181.7"/>
<text xml:space="preserve" text-anchor="middle" x="664" y="-65.05" font-family="Helvetica,sans-Serif" font-size="11.00" fill="#2d3436">XGBoost</text>
<text xml:space="preserve" text-anchor="middle" x="664" y="-51.55" font-family="Helvetica,sans-Serif" font-size="11.00" fill="#2d3436">Equipo 1</text>
</g>
<!-- 4eab9f32e65941128bd8ab0a478ffff1&#45;&gt;81a35628a2094c09a134aeffa5e19a1a -->
<g id="edge10" class="edge">
<title>4eab9f32e65941128bd8ab0a478ffff1&#45;&gt;81a35628a2094c09a134aeffa5e19a1a</title>
<path fill="none" stroke="#6b7280" d="M893.6,-568.48C893.6,-465.98 893.6,-304.5 893.6,-304.5 893.6,-304.5 689.2,-304.5 689.2,-304.5 689.2,-304.5 689.2,-225.61 689.2,-225.61"/>
<polygon fill="#6b7280" stroke="#6b7280" points="692.7,-225.61 689.2,-215.61 685.7,-225.61 692.7,-225.61"/>
<text xml:space="preserve" text-anchor="middle" x="819.88" y="-392.45" font-family="Sans-Serif" font-size="13.00" fill="#2d3436">predict</text>
</g>
<!-- 753b68234fd545f08d149c7864588591 -->
<g id="node11" class="node">
<title>753b68234fd545f08d149c7864588591</title>
<image xlink:href="C:\Users\analistapowerbi\Documents\GitHub\cost-forecast\costforecast-ai\.venv\Lib\site-packages\resources/aws/ml\sagemaker-model.png" width="100.8px" height="100.8px" preserveAspectRatio="xMinYMin meet" x="757.6" y="-181.7"/>
<text xml:space="preserve" text-anchor="middle" x="808" y="-65.05" font-family="Helvetica,sans-Serif" font-size="11.00" fill="#2d3436">XGBoost</text>
<text xml:space="preserve" text-anchor="middle" x="808" y="-51.55" font-family="Helvetica,sans-Serif" font-size="11.00" fill="#2d3436">Equipo 2</text>
</g>
<!-- 4eab9f32e65941128bd8ab0a478ffff1&#45;&gt;753b68234fd545f08d149c7864588591 -->
<g id="edge11" class="edge">
<title>4eab9f32e65941128bd8ab0a478ffff1&#45;&gt;753b68234fd545f08d149c7864588591</title>
<path fill="none" stroke="#6b7280" d="M897.6,-568.44C897.6,-421.85 897.6,-131.5 897.6,-131.5 897.6,-131.5 869.81,-131.5 869.81,-131.5"/>
<polygon fill="#6b7280" stroke="#6b7280" points="869.81,-128 859.81,-131.5 869.81,-135 869.81,-128"/>
<text xml:space="preserve" text-anchor="middle" x="945.88" y="-392.45" font-family="Sans-Serif" font-size="13.00" fill="#2d3436">predict</text>
</g>
<!-- 55455fb385e64c91be187a702ef78072 -->
<g id="node15" class="node">
<title>55455fb385e64c91be187a702ef78072</title>
<image xlink:href="C:\Users\analistapowerbi\Documents\GitHub\cost-forecast\costforecast-ai\.venv\Lib\site-packages\resources/aws/storage\simple-storage-service-s3.png" width="100.8px" height="100.8px" preserveAspectRatio="xMinYMin meet" x="159.6" y="-1252.95"/>
<text xml:space="preserve" text-anchor="middle" x="210" y="-1135.4" font-family="Helvetica,sans-Serif" font-size="11.00" fill="#2d3436">S3</text>
<text xml:space="preserve" text-anchor="middle" x="210" y="-1121.9" font-family="Helvetica,sans-Serif" font-size="11.00" fill="#2d3436">/forecasts</text>
<text xml:space="preserve" text-anchor="middle" x="210" y="-1108.4" font-family="Helvetica,sans-Serif" font-size="11.00" fill="#2d3436">JSON</text>
</g>
<!-- 4eab9f32e65941128bd8ab0a478ffff1&#45;&gt;55455fb385e64c91be187a702ef78072 -->
<g id="edge16" class="edge">
<title>4eab9f32e65941128bd8ab0a478ffff1&#45;&gt;55455fb385e64c91be187a702ef78072</title>
<path fill="none" stroke="#6b7280" d="M899.2,-733.81C899.2,-866.61 899.2,-1112.5 899.2,-1112.5 899.2,-1112.5 271.91,-1112.5 271.91,-1112.5"/>
<polygon fill="#6b7280" stroke="#6b7280" points="271.91,-1109 261.91,-1112.5 271.91,-1116 271.91,-1109"/>
<text xml:space="preserve" text-anchor="middle" x="216.25" y="-901.45" font-family="Sans-Serif" font-size="13.00" fill="#2d3436">write</text>
</g>
<!-- 183dfa53912e469c829531987bfb8b47&#45;&gt;41a49f42ab924e55971432195a5b336f -->
<g id="edge12" class="edge">
<title>183dfa53912e469c829531987bfb8b47&#45;&gt;41a49f42ab924e55971432195a5b336f</title>
<path fill="none" stroke="#6b7280" d="M714.38,-361.5C795,-361.5 944,-361.5 944,-361.5 944,-361.5 944,-225.6 944,-225.6"/>
<polygon fill="#6b7280" stroke="#6b7280" points="947.5,-225.6 944,-215.6 940.5,-225.6 947.5,-225.6"/>
<text xml:space="preserve" text-anchor="middle" x="820.88" y="-258" font-family="Sans-Serif" font-size="13.00" fill="#2d3436">predict</text>
</g>
<!-- 183dfa53912e469c829531987bfb8b47&#45;&gt;5a372ea6a55348e3ab82f0f8c8a1613d -->
<g id="edge13" class="edge">
<title>183dfa53912e469c829531987bfb8b47&#45;&gt;5a372ea6a55348e3ab82f0f8c8a1613d</title>
<path fill="none" stroke="#6b7280" d="M714.05,-384.5C819.72,-384.5 1056,-384.5 1056,-384.5 1056,-384.5 1056,-225.37 1056,-225.37"/>
<polygon fill="#6b7280" stroke="#6b7280" points="1059.5,-225.37 1056,-215.37 1052.5,-225.37 1059.5,-225.37"/>
<text xml:space="preserve" text-anchor="middle" x="1120.88" y="-258" font-family="Sans-Serif" font-size="13.00" fill="#2d3436">predict</text>
</g>
<!-- 183dfa53912e469c829531987bfb8b47&#45;&gt;81a35628a2094c09a134aeffa5e19a1a -->
<g id="edge14" class="edge">
<title>183dfa53912e469c829531987bfb8b47&#45;&gt;81a35628a2094c09a134aeffa5e19a1a</title>
<path fill="none" stroke="#6b7280" d="M664,-314.08C664,-314.08 664,-225.24 664,-225.24"/>
<polygon fill="#6b7280" stroke="#6b7280" points="667.5,-225.24 664,-215.24 660.5,-225.24 667.5,-225.24"/>
<text xml:space="preserve" text-anchor="middle" x="662.88" y="-258" font-family="Sans-Serif" font-size="13.00" fill="#2d3436">shap</text>
</g>
<!-- 183dfa53912e469c829531987bfb8b47&#45;&gt;753b68234fd545f08d149c7864588591 -->
<g id="edge15" class="edge">
<title>183dfa53912e469c829531987bfb8b47&#45;&gt;753b68234fd545f08d149c7864588591</title>
<path fill="none" stroke="#6b7280" d="M714.23,-337.5C743.28,-337.5 774.13,-337.5 774.13,-337.5 774.13,-337.5 774.13,-225.49 774.13,-225.49"/>
<polygon fill="#6b7280" stroke="#6b7280" points="777.63,-225.49 774.13,-215.49 770.63,-225.49 777.63,-225.49"/>
<text xml:space="preserve" text-anchor="middle" x="738.88" y="-258" font-family="Sans-Serif" font-size="13.00" fill="#2d3436">shap</text>
</g>
<!-- c1c0b97e7bae40ec9876dc4184df8968 -->
<g id="node21" class="node">
<title>c1c0b97e7bae40ec9876dc4184df8968</title>
<image xlink:href="C:\Users\analistapowerbi\Documents\GitHub\cost-forecast\costforecast-ai\.venv\Lib\site-packages\resources/aws/compute\lambda.png" width="100.8px" height="100.8px" preserveAspectRatio="xMinYMin meet" x="1241.6" y="-181.7"/>
<text xml:space="preserve" text-anchor="middle" x="1292" y="-65.05" font-family="Helvetica,sans-Serif" font-size="11.00" fill="#2d3436">Anthropic</text>
<text xml:space="preserve" text-anchor="middle" x="1292" y="-51.55" font-family="Helvetica,sans-Serif" font-size="11.00" fill="#2d3436">Claude API</text>
</g>
<!-- 183dfa53912e469c829531987bfb8b47&#45;&gt;c1c0b97e7bae40ec9876dc4184df8968 -->
<g id="edge17" class="edge">
<title>183dfa53912e469c829531987bfb8b47&#45;&gt;c1c0b97e7bae40ec9876dc4184df8968</title>
<path fill="none" stroke="#6b7280" d="M714.33,-408.5C863.35,-408.5 1292,-408.5 1292,-408.5 1292,-408.5 1292,-225.61 1292,-225.61"/>
<polygon fill="#6b7280" stroke="#6b7280" points="1295.5,-225.61 1292,-215.61 1288.5,-225.61 1295.5,-225.61"/>
<text xml:space="preserve" text-anchor="middle" x="1271.38" y="-258" font-family="Sans-Serif" font-size="13.00" fill="#2d3436">chat</text>
</g>
<!-- 112c10109f474aa8a07a4a50551a614c -->
<g id="node22" class="node">
<title>112c10109f474aa8a07a4a50551a614c</title>
<image xlink:href="C:\Users\analistapowerbi\Documents\GitHub\cost-forecast\costforecast-ai\.venv\Lib\site-packages\resources/aws/compute\lambda.png" width="100.8px" height="100.8px" preserveAspectRatio="xMinYMin meet" x="1385.6" y="-181.7"/>
<text xml:space="preserve" text-anchor="middle" x="1436" y="-65.05" font-family="Helvetica,sans-Serif" font-size="11.00" fill="#2d3436">Tavily</text>
<text xml:space="preserve" text-anchor="middle" x="1436" y="-51.55" font-family="Helvetica,sans-Serif" font-size="11.00" fill="#2d3436">Search API</text>
</g>
<!-- 183dfa53912e469c829531987bfb8b47&#45;&gt;112c10109f474aa8a07a4a50551a614c -->
<g id="edge18" class="edge">
<title>183dfa53912e469c829531987bfb8b47&#45;&gt;112c10109f474aa8a07a4a50551a614c</title>
<path fill="none" stroke="#6b7280" d="M714.36,-432.5C885.77,-432.5 1436,-432.5 1436,-432.5 1436,-432.5 1436,-225.52 1436,-225.52"/>
<polygon fill="#6b7280" stroke="#6b7280" points="1439.5,-225.52 1436,-215.52 1432.5,-225.52 1439.5,-225.52"/>
<text xml:space="preserve" text-anchor="middle" x="1402.75" y="-258" font-family="Sans-Serif" font-size="13.00" fill="#2d3436">search</text>
</g>
<!-- 03cd4d43081f450b813f3c31242a7a52 -->
<g id="node12" class="node">
<title>03cd4d43081f450b813f3c31242a7a52</title>
<image xlink:href="C:\Users\analistapowerbi\Documents\GitHub\cost-forecast\costforecast-ai\.venv\Lib\site-packages\resources/aws/storage\simple-storage-service-s3.png" width="100.8px" height="100.8px" preserveAspectRatio="xMinYMin meet" x="15.6" y="-1252.95"/>
<text xml:space="preserve" text-anchor="middle" x="66" y="-1136.3" font-family="Helvetica,sans-Serif" font-size="11.00" fill="#2d3436">S3</text>
<text xml:space="preserve" text-anchor="middle" x="66" y="-1122.8" font-family="Helvetica,sans-Serif" font-size="11.00" fill="#2d3436">/raw &#160;CSVs</text>
</g>
<!-- 043b9a6850a54a1eaf6500d5bb05cc8e -->
<g id="node13" class="node">
<title>043b9a6850a54a1eaf6500d5bb05cc8e</title>
<image xlink:href="C:\Users\analistapowerbi\Documents\GitHub\cost-forecast\costforecast-ai\.venv\Lib\site-packages\resources/aws/storage\simple-storage-service-s3.png" width="100.8px" height="100.8px" preserveAspectRatio="xMinYMin meet" x="15.6" y="-955.95"/>
<text xml:space="preserve" text-anchor="middle" x="66" y="-838.4" font-family="Helvetica,sans-Serif" font-size="11.00" fill="#2d3436">S3</text>
<text xml:space="preserve" text-anchor="middle" x="66" y="-824.9" font-family="Helvetica,sans-Serif" font-size="11.00" fill="#2d3436">/processed</text>
<text xml:space="preserve" text-anchor="middle" x="66" y="-811.4" font-family="Helvetica,sans-Serif" font-size="11.00" fill="#2d3436">Parquet</text>
</g>
<!-- 03cd4d43081f450b813f3c31242a7a52&#45;&gt;043b9a6850a54a1eaf6500d5bb05cc8e -->
<g id="edge19" class="edge">
<title>03cd4d43081f450b813f3c31242a7a52&#45;&gt;043b9a6850a54a1eaf6500d5bb05cc8e</title>
<path fill="none" stroke="#6b7280" d="M66,-1119.82C66,-1119.82 66,-1014.07 66,-1014.07"/>
<polygon fill="#6b7280" stroke="#6b7280" points="69.5,-1014.07 66,-1004.07 62.5,-1014.07 69.5,-1014.07"/>
<text xml:space="preserve" text-anchor="middle" x="76.88" y="-1064" font-family="Sans-Serif" font-size="13.00" fill="#2d3436">ETL</text>
</g>
<!-- 8dc30d8ce46b442385ee6e62be3d8efc -->
<g id="node16" class="node">
<title>8dc30d8ce46b442385ee6e62be3d8efc</title>
<image xlink:href="C:\Users\analistapowerbi\Documents\GitHub\cost-forecast\costforecast-ai\.venv\Lib\site-packages\resources/aws/ml\sagemaker-training-job.png" width="100.8px" height="100.8px" preserveAspectRatio="xMinYMin meet" x="159.6" y="-701.45"/>
<text xml:space="preserve" text-anchor="middle" x="210" y="-584.8" font-family="Helvetica,sans-Serif" font-size="11.00" fill="#2d3436">SageMaker</text>
<text xml:space="preserve" text-anchor="middle" x="210" y="-571.3" font-family="Helvetica,sans-Serif" font-size="11.00" fill="#2d3436">Training Jobs</text>
</g>
<!-- 043b9a6850a54a1eaf6500d5bb05cc8e&#45;&gt;8dc30d8ce46b442385ee6e62be3d8efc -->
<g id="edge20" class="edge">
<title>043b9a6850a54a1eaf6500d5bb05cc8e&#45;&gt;8dc30d8ce46b442385ee6e62be3d8efc</title>
<path fill="none" stroke="#6b7280" d="M116.36,-815.5C157.89,-815.5 210,-815.5 210,-815.5 210,-815.5 210,-745.27 210,-745.27"/>
<polygon fill="#6b7280" stroke="#6b7280" points="213.5,-745.27 210,-735.27 206.5,-745.27 213.5,-745.27"/>
<text xml:space="preserve" text-anchor="middle" x="162.25" y="-767" font-family="Sans-Serif" font-size="13.00" fill="#2d3436">train_data</text>
</g>
<!-- c0503839176e4940b5f635b8675044d3 -->
<g id="node14" class="node">
<title>c0503839176e4940b5f635b8675044d3</title>
<image xlink:href="C:\Users\analistapowerbi\Documents\GitHub\cost-forecast\costforecast-ai\.venv\Lib\site-packages\resources/aws/storage\simple-storage-service-s3.png" width="100.8px" height="100.8px" preserveAspectRatio="xMinYMin meet" x="159.6" y="-446.95"/>
<text xml:space="preserve" text-anchor="middle" x="210" y="-329.4" font-family="Helvetica,sans-Serif" font-size="11.00" fill="#2d3436">S3</text>
<text xml:space="preserve" text-anchor="middle" x="210" y="-315.9" font-family="Helvetica,sans-Serif" font-size="11.00" fill="#2d3436">/models</text>
<text xml:space="preserve" text-anchor="middle" x="210" y="-302.4" font-family="Helvetica,sans-Serif" font-size="11.00" fill="#2d3436">Artifacts</text>
</g>
<!-- c0503839176e4940b5f635b8675044d3&#45;&gt;41a49f42ab924e55971432195a5b336f -->
<g id="edge22" class="edge">
<title>c0503839176e4940b5f635b8675044d3&#45;&gt;41a49f42ab924e55971432195a5b336f</title>
<path fill="none" stroke="#6b7280" stroke-dasharray="5,2" d="M260.12,-308.5C422.37,-308.5 922.8,-308.5 922.8,-308.5 922.8,-308.5 922.8,-225.45 922.8,-225.45"/>
<polygon fill="#6b7280" stroke="#6b7280" points="926.3,-225.45 922.8,-215.45 919.3,-225.45 926.3,-225.45"/>
<text xml:space="preserve" text-anchor="middle" x="458.5" y="-258" font-family="Sans-Serif" font-size="13.00" fill="#2d3436">load model</text>
</g>
<!-- c0503839176e4940b5f635b8675044d3&#45;&gt;5a372ea6a55348e3ab82f0f8c8a1613d -->
<g id="edge23" class="edge">
<title>c0503839176e4940b5f635b8675044d3&#45;&gt;5a372ea6a55348e3ab82f0f8c8a1613d</title>
<path fill="none" stroke="#6b7280" stroke-dasharray="5,2" d="M260.39,-311.5C441.79,-311.5 1050.8,-311.5 1050.8,-311.5 1050.8,-311.5 1050.8,-225.53 1050.8,-225.53"/>
<polygon fill="#6b7280" stroke="#6b7280" points="1054.3,-225.53 1050.8,-215.53 1047.3,-225.53 1054.3,-225.53"/>
<text xml:space="preserve" text-anchor="middle" x="569.5" y="-258" font-family="Sans-Serif" font-size="13.00" fill="#2d3436">load model</text>
</g>
<!-- c0503839176e4940b5f635b8675044d3&#45;&gt;81a35628a2094c09a134aeffa5e19a1a -->
<g id="edge24" class="edge">
<title>c0503839176e4940b5f635b8675044d3&#45;&gt;81a35628a2094c09a134aeffa5e19a1a</title>
<path fill="none" stroke="#6b7280" stroke-dasharray="5,2" d="M260.03,-301.5C373.14,-301.5 638.8,-301.5 638.8,-301.5 638.8,-301.5 638.8,-225.42 638.8,-225.42"/>
<polygon fill="#6b7280" stroke="#6b7280" points="642.3,-225.42 638.8,-215.42 635.3,-225.42 642.3,-225.42"/>
<text xml:space="preserve" text-anchor="middle" x="236.5" y="-258" font-family="Sans-Serif" font-size="13.00" fill="#2d3436">load model</text>
</g>
<!-- c0503839176e4940b5f635b8675044d3&#45;&gt;753b68234fd545f08d149c7864588591 -->
<g id="edge25" class="edge">
<title>c0503839176e4940b5f635b8675044d3&#45;&gt;753b68234fd545f08d149c7864588591</title>
<path fill="none" stroke="#6b7280" stroke-dasharray="5,2" d="M260.31,-306.5C397.14,-306.5 765.87,-306.5 765.87,-306.5 765.87,-306.5 765.87,-225.54 765.87,-225.54"/>
<polygon fill="#6b7280" stroke="#6b7280" points="769.37,-225.54 765.87,-215.54 762.37,-225.54 769.37,-225.54"/>
<text xml:space="preserve" text-anchor="middle" x="347.5" y="-258" font-family="Sans-Serif" font-size="13.00" fill="#2d3436">load model</text>
</g>
<!-- 8dc30d8ce46b442385ee6e62be3d8efc&#45;&gt;c0503839176e4940b5f635b8675044d3 -->
<g id="edge21" class="edge">
<title>8dc30d8ce46b442385ee6e62be3d8efc&#45;&gt;c0503839176e4940b5f635b8675044d3</title>
<path fill="none" stroke="#6b7280" d="M210,-568.42C210,-568.42 210,-504.89 210,-504.89"/>
<polygon fill="#6b7280" stroke="#6b7280" points="213.5,-504.89 210,-494.89 206.5,-504.89 213.5,-504.89"/>
<text xml:space="preserve" text-anchor="middle" x="232.88" y="-526.9" font-family="Sans-Serif" font-size="13.00" fill="#2d3436">artifacts</text>
</g>
<!-- eaca6c9377ea4622ae79bef62519bbdc -->
<g id="node17" class="node">
<title>eaca6c9377ea4622ae79bef62519bbdc</title>
<image xlink:href="C:\Users\analistapowerbi\Documents\GitHub\cost-forecast\costforecast-ai\.venv\Lib\site-packages\resources/aws/compute\ec2-container-registry.png" width="100.8px" height="100.8px" preserveAspectRatio="xMinYMin meet" x="825.6" y="-1252.95"/>
<text xml:space="preserve" text-anchor="middle" x="876" y="-1136.3" font-family="Helvetica,sans-Serif" font-size="11.00" fill="#2d3436">ECR</text>
<text xml:space="preserve" text-anchor="middle" x="876" y="-1122.8" font-family="Helvetica,sans-Serif" font-size="11.00" fill="#2d3436">Images</text>
</g>
<!-- eaca6c9377ea4622ae79bef62519bbdc&#45;&gt;8da99c088f074d2ab7cd385f276a8521 -->
<g id="edge26" class="edge">
<title>eaca6c9377ea4622ae79bef62519bbdc&#45;&gt;8da99c088f074d2ab7cd385f276a8521</title>
<path fill="none" stroke="#10b981" stroke-dasharray="5,2" d="M926.11,-1126.5C961.21,-1126.5 1001.87,-1126.5 1001.87,-1126.5 1001.87,-1126.5 1001.87,-999.65 1001.87,-999.65"/>
<polygon fill="#10b981" stroke="#10b981" points="1005.37,-999.65 1001.87,-989.65 998.37,-999.65 1005.37,-999.65"/>
<text xml:space="preserve" text-anchor="middle" x="963" y="-1064" font-family="Sans-Serif" font-size="13.00" fill="#2d3436">pull image</text>
</g>
<!-- eaca6c9377ea4622ae79bef62519bbdc&#45;&gt;4eab9f32e65941128bd8ab0a478ffff1 -->
<g id="edge27" class="edge">
<title>eaca6c9377ea4622ae79bef62519bbdc&#45;&gt;4eab9f32e65941128bd8ab0a478ffff1</title>
<path fill="none" stroke="#10b981" stroke-dasharray="5,2" d="M912.8,-1119.98C912.8,-1119.98 912.8,-745.24 912.8,-745.24"/>
<polygon fill="#10b981" stroke="#10b981" points="916.3,-745.24 912.8,-735.24 909.3,-745.24 916.3,-745.24"/>
<text xml:space="preserve" text-anchor="middle" x="893" y="-901.45" font-family="Sans-Serif" font-size="13.00" fill="#2d3436">pull image</text>
</g>
<!-- c0bdb8996a144dcaace0bf5f87b5ec78 -->
<g id="node18" class="node">
<title>c0bdb8996a144dcaace0bf5f87b5ec78</title>
<image xlink:href="C:\Users\analistapowerbi\Documents\GitHub\cost-forecast\costforecast-ai\.venv\Lib\site-packages\resources/aws/security\secrets-manager.png" width="100.8px" height="100.8px" preserveAspectRatio="xMinYMin meet" x="681.6" y="-1252.95"/>
<text xml:space="preserve" text-anchor="middle" x="732" y="-1136.3" font-family="Helvetica,sans-Serif" font-size="11.00" fill="#2d3436">Secrets Manager</text>
<text xml:space="preserve" text-anchor="middle" x="732" y="-1122.8" font-family="Helvetica,sans-Serif" font-size="11.00" fill="#2d3436">API Keys</text>
</g>
<!-- c0bdb8996a144dcaace0bf5f87b5ec78&#45;&gt;183dfa53912e469c829531987bfb8b47 -->
<g id="edge28" class="edge">
<title>c0bdb8996a144dcaace0bf5f87b5ec78&#45;&gt;183dfa53912e469c829531987bfb8b47</title>
<path fill="none" stroke="#f59e0b" stroke-dasharray="5,2" d="M698,-1120.08C698,-1120.08 698,-490.72 698,-490.72"/>
<polygon fill="#f59e0b" stroke="#f59e0b" points="701.5,-490.72 698,-480.72 694.5,-490.72 701.5,-490.72"/>
<text xml:space="preserve" text-anchor="middle" x="713.88" y="-767" font-family="Sans-Serif" font-size="13.00" fill="#2d3436">read secrets</text>
</g>
<!-- 8a29359d4e9a44ba85adb2f519cc030e -->
<g id="node19" class="node">
<title>8a29359d4e9a44ba85adb2f519cc030e</title>
<image xlink:href="C:\Users\analistapowerbi\Documents\GitHub\cost-forecast\costforecast-ai\.venv\Lib\site-packages\resources/aws/management\cloudwatch.png" width="100.8px" height="100.8px" preserveAspectRatio="xMinYMin meet" x="537.6" y="-1252.95"/>
<text xml:space="preserve" text-anchor="middle" x="588" y="-1136.3" font-family="Helvetica,sans-Serif" font-size="11.00" fill="#2d3436">CloudWatch</text>
<text xml:space="preserve" text-anchor="middle" x="588" y="-1122.8" font-family="Helvetica,sans-Serif" font-size="11.00" fill="#2d3436">Logs · Metrics</text>
</g>
<!-- 8a29359d4e9a44ba85adb2f519cc030e&#45;&gt;4eab9f32e65941128bd8ab0a478ffff1 -->
<g id="edge29" class="edge">
<title>8a29359d4e9a44ba85adb2f519cc030e&#45;&gt;4eab9f32e65941128bd8ab0a478ffff1</title>
<path fill="none" stroke="#8b5cf6" stroke-dasharray="5,2" d="M630.13,-1119.8C630.13,-972.13 630.13,-678.5 630.13,-678.5 630.13,-678.5 874.32,-678.5 874.32,-678.5"/>
<polygon fill="#8b5cf6" stroke="#8b5cf6" points="874.32,-682 884.32,-678.5 874.32,-675 874.32,-682"/>
<text xml:space="preserve" text-anchor="middle" x="668.12" y="-901.45" font-family="Sans-Serif" font-size="13.00" fill="#2d3436">monitor</text>
</g>
<!-- 8a29359d4e9a44ba85adb2f519cc030e&#45;&gt;183dfa53912e469c829531987bfb8b47 -->
<g id="edge30" class="edge">
<title>8a29359d4e9a44ba85adb2f519cc030e&#45;&gt;183dfa53912e469c829531987bfb8b47</title>
<path fill="none" stroke="#8b5cf6" stroke-dasharray="5,2" d="M621.87,-1120.08C621.87,-1120.08 621.87,-490.72 621.87,-490.72"/>
<polygon fill="#8b5cf6" stroke="#8b5cf6" points="625.37,-490.72 621.87,-480.72 618.37,-490.72 625.37,-490.72"/>
<text xml:space="preserve" text-anchor="middle" x="560.12" y="-767" font-family="Sans-Serif" font-size="13.00" fill="#2d3436">monitor</text>
</g>
<!-- e96a80e82bc74bc794c3773b61b4b2e3 -->
<g id="node20" class="node">
<title>e96a80e82bc74bc794c3773b61b4b2e3</title>
<image xlink:href="C:\Users\analistapowerbi\Documents\GitHub\cost-forecast\costforecast-ai\.venv\Lib\site-packages\resources/aws/security\identity-and-access-management-iam.png" width="100.8px" height="100.8px" preserveAspectRatio="xMinYMin meet" x="393.6" y="-1252.95"/>
<text xml:space="preserve" text-anchor="middle" x="444" y="-1136.3" font-family="Helvetica,sans-Serif" font-size="11.00" fill="#2d3436">IAM</text>
<text xml:space="preserve" text-anchor="middle" x="444" y="-1122.8" font-family="Helvetica,sans-Serif" font-size="11.00" fill="#2d3436">Roles</text>
</g>
<!-- e96a80e82bc74bc794c3773b61b4b2e3&#45;&gt;183dfa53912e469c829531987bfb8b47 -->
<g id="edge31" class="edge">
<title>e96a80e82bc74bc794c3773b61b4b2e3&#45;&gt;183dfa53912e469c829531987bfb8b47</title>
<path fill="none" stroke="#ef4444" stroke-dasharray="5,2" d="M460.8,-1120.08C460.8,-914.64 460.8,-396.5 460.8,-396.5 460.8,-396.5 602.26,-396.5 602.26,-396.5"/>
<polygon fill="#ef4444" stroke="#ef4444" points="602.26,-400 612.26,-396.5 602.26,-393 602.26,-400"/>
<text xml:space="preserve" text-anchor="middle" x="455.5" y="-767" font-family="Sans-Serif" font-size="13.00" fill="#2d3436">assume role</text>
</g>
<!-- e96a80e82bc74bc794c3773b61b4b2e3&#45;&gt;8dc30d8ce46b442385ee6e62be3d8efc -->
<g id="edge32" class="edge">
<title>e96a80e82bc74bc794c3773b61b4b2e3&#45;&gt;8dc30d8ce46b442385ee6e62be3d8efc</title>
<path fill="none" stroke="#ef4444" stroke-dasharray="5,2" d="M427.2,-1119.89C427.2,-959.9 427.2,-623.5 427.2,-623.5 427.2,-623.5 271.89,-623.5 271.89,-623.5"/>
<polygon fill="#ef4444" stroke="#ef4444" points="271.89,-620 261.89,-623.5 271.89,-627 271.89,-620"/>
<text xml:space="preserve" text-anchor="middle" x="351.5" y="-901.45" font-family="Sans-Serif" font-size="13.00" fill="#2d3436">assume role</text>
</g>
</g>
</svg>
